<svg width="16" height="10" viewBox="0 0 16 10" fill="none" xmlns="http://www.w3.org/2000/svg">
<path id="Dropdown Icon" d="M15.1698 0.3824C14.9584 0.137549 14.6716 -5.6706e-08 14.3725 -7.71742e-08C14.0735 -9.76425e-08 13.7867 0.137549 13.5753 0.382399L7.99319 6.84743L2.41111 0.382399C2.19843 0.144487 1.91357 0.0128432 1.61789 0.0158196C1.32222 0.018795 1.03938 0.156153 0.830294 0.398308C0.621211 0.640464 0.502614 0.968041 0.500045 1.31049C0.497475 1.65293 0.61114 1.98285 0.816559 2.22918L7.19591 9.6176C7.40739 9.86245 7.69417 10 7.99319 10C8.29222 10 8.579 9.86245 8.79047 9.6176L15.1698 2.22918C15.3812 1.98425 15.5 1.65211 15.5 1.30579C15.5 0.959466 15.3812 0.627323 15.1698 0.3824Z" fill="white"/>
</svg>
